<?xml version="1.0" encoding="UTF-8"?>
<svg version="1.1" xmlns="http://www.w3.org/2000/svg" width="666" height="664">
<path d="M0 0 C1.12974747 0.00039276 1.12974747 0.00039276 2.28231812 0.00079346 C35.74216303 0.13827841 61.97618601 13.57364591 85.5625 36.875 C101.19028324 52.74834755 112.94194412 71.00928866 123.6875 90.4375 C124.41453125 90.2209375 125.1415625 90.004375 125.890625 89.78125 C135.55122128 87.10600795 145.37751128 85.24722505 154.65625 90.0546875 C161.45132185 94.68056334 165.85591511 101.45623009 167.6875 109.4375 C167.98193197 113.79605844 167.93349413 118.07793738 167.6875 122.4375 C168.244375 122.46328125 168.80125 122.4890625 169.375 122.515625 C178.10536642 123.16450359 184.13576915 126.12059396 190.1484375 132.50390625 C195.07982118 138.69942636 196.83501519 144.8661022 196.75 152.6875 C196.74097656 153.76515625 196.73195313 154.8428125 196.72265625 155.953125 C196.70525391 157.18289062 196.70525391 157.18289062 196.6875 158.4375 C197.26757812 158.46328125 197.84765625 158.4890625 198.4453125 158.515625 C206.98218793 159.13546414 211.33870753 162.76875332 216.9765625 168.94921875 C221.92389764 176.14431575 223.26748633 182.35055074 222.9375 191 C222.91945313 191.91330078 222.90140625 192.82660156 222.8828125 193.76757812 C222.83622701 195.99203514 222.77085485 198.21416967 222.6875 200.4375 C223.88246094 200.58445313 223.88246094 200.58445313 225.1015625 200.734375 C231.23886488 201.60046633 235.87499158 202.28124273 240.6875 206.4375 C241.34492188 206.98277344 242.00234375 207.52804688 242.6796875 208.08984375 C249.04874985 213.79400399 252.15623367 220.14873585 253.01855469 228.7331543 C253.11427807 232.16464004 253.0873905 235.56846655 253 239 C252.99033203 240.17369141 252.98066406 241.34738281 252.97070312 242.55664062 C252.85734662 251.09780676 252.85734662 251.09780676 251.6875 253.4375 C252.6775 253.1075 253.6675 252.7775 254.6875 252.4375 C262.57635276 251.77099028 270.11572225 251.57486592 276.6875 256.4375 C285.38107496 264.71444996 288.56965981 272.57846148 289.08300781 284.40478516 C289.48552489 305.08761011 281.00115758 323.43417679 271.6875 341.4375 C272.31914063 341.30472656 272.95078125 341.17195313 273.6015625 341.03515625 C297.85092711 336.24817793 331.60711001 334.53929624 353.3125 348.75 C357.59995781 352.05581764 360.87093702 355.82252349 363.6875 360.4375 C364.06261719 361.0046875 364.43773437 361.571875 364.82421875 362.15625 C366.13790761 365.62771739 366.01581729 369.08987917 366 372.75 C366.01611328 373.48412109 366.03222656 374.21824219 366.04882812 374.97460938 C366.05703159 384.21991892 362.05330154 389.99294628 355.6875 396.4375 C351.63358077 400.26278171 347.34276987 403.36925395 342.6875 406.4375 C342.23761719 406.88738281 341.78773438 407.33726562 341.32421875 407.80078125 C339.2636601 409.8613399 337.02688094 411.61867 334.75 413.4375 C312.49090059 431.50260782 312.49090059 431.50260782 295.25 453.9453125 C293.6875 456.4375 293.6875 456.4375 291.34765625 458.75390625 C288.10488903 462.02524411 285.65900541 465.54275997 283.125 469.375 C282.60905273 470.15423828 282.09310547 470.93347656 281.56152344 471.73632812 C275.33609613 481.3063672 269.87464576 491.27315979 264.6875 501.4375 C264.3167334 502.16275879 263.9459668 502.88801758 263.56396484 503.63525391 C259.70598291 511.34568266 256.69941579 519.24039287 254.03515625 527.4375 C253.80054184 528.15673141 253.56592743 528.87596283 253.32420349 529.61698914 C252.15126233 533.22813125 251.00323402 536.84452271 249.89428711 540.47583008 C244.6302772 557.32148252 235.24697439 572.72170036 219.6953125 581.9375 C209.07727494 587.23272912 199.27592689 589.58581894 187.55493164 589.5793457 C186.02676567 589.58455734 186.02676567 589.58455734 184.46772766 589.58987427 C182.25519925 589.59722137 180.04266351 589.60257232 177.83012581 589.60616493 C174.30770643 589.61336289 170.78542376 589.6290601 167.26304626 589.64750671 C157.24708074 589.69977848 147.23118649 589.74780377 137.21508789 589.76342773 C131.0818213 589.77361995 124.94889459 589.80323475 118.81576347 589.84474754 C116.49783358 589.85691537 114.17985534 589.86220537 111.86189461 589.85994911 C98.31844446 589.85002205 85.67987758 590.84481763 72.40254211 593.53611755 C66.99010633 594.62013921 61.73811944 594.99466351 56.22265625 594.8984375 C54.82447914 594.89706284 54.82447914 594.89706284 53.39805603 594.8956604 C51.47389472 594.88974354 49.54973711 594.87437437 47.62573242 594.84912109 C44.72604523 594.81219495 41.8276347 594.80810699 38.92773438 594.80859375 C6.22168761 594.6869409 6.22168761 594.6869409 -2.015625 586.80859375 C-2.44359375 586.35613281 -2.8715625 585.90367187 -3.3125 585.4375 C-3.993125 585.72625 -4.67375 586.015 -5.375 586.3125 C-13.07397908 589.26104518 -19.87414219 589.81010341 -28.05371094 589.80810547 C-30.04378756 589.81245906 -32.03370538 589.8494358 -34.0234375 589.88671875 C-41.44925463 589.90904085 -47.2129756 589.29622273 -53.94189453 586.04296875 C-56.40573921 585.16504679 -56.40573921 585.16504679 -59.02270508 586.52612305 C-60.68943764 587.58655657 -62.32813151 588.69191665 -63.94140625 589.83203125 C-80.47988897 601.03024607 -117.27250993 594.6391829 -135.56640625 591.84765625 C-145.49931732 589.8657649 -152.12021138 585.21730034 -158.8046875 577.7578125 C-164.35750303 569.21280621 -164.65645094 559.30417429 -163.3125 549.4375 C-161.87836201 544.73583882 -159.70584013 540.71495896 -157.3125 536.4375 C-156.67004739 535.11923796 -156.03765816 533.79603618 -155.4140625 532.46875 C-151.47700178 524.13612299 -147.11347266 516.65275938 -141.3125 509.4375 C-140.72984375 508.70273437 -140.1471875 507.96796875 -139.546875 507.2109375 C-138.19750807 505.56680595 -136.76376376 503.99242546 -135.3125 502.4375 C-134.6525 502.4375 -133.9925 502.4375 -133.3125 502.4375 C-133.58964844 501.32375 -133.86679688 500.21 -134.15234375 499.0625 C-140.62378205 472.17977143 -139.71581089 445.53368846 -125.3125 421.4375 C-120.95256864 414.62671965 -115.84313052 408.67288012 -110.3671875 402.7421875 C-107.73887395 399.79407914 -105.51791417 396.71005006 -103.3125 393.4375 C-104.42367187 393.40011719 -105.53484375 393.36273438 -106.6796875 393.32421875 C-122.06090792 392.69436565 -133.54989222 390.07194426 -144.55078125 378.6171875 C-151.59484232 369.90191904 -151.99131343 359.37182745 -151.07421875 348.65234375 C-146.70966455 315.89614402 -120.02113313 285.6125099 -97.3125 263.4375 C-96.19875 262.32375 -96.19875 262.32375 -95.0625 261.1875 C-94.00945947 260.13445947 -92.93650579 259.10009467 -91.828125 258.10546875 C-81.116951 246.31765612 -82.77107626 220.3016961 -82.3125 205.4375 C-82.91288086 205.32575439 -83.51326172 205.21400879 -84.13183594 205.09887695 C-92.06964435 203.50280933 -92.06964435 203.50280933 -95.5625 200.625 C-96.21734375 200.10035156 -96.8721875 199.57570312 -97.546875 199.03515625 C-99.3125 197.4375 -99.3125 197.4375 -101.8125 194.5625 C-104.77190908 192.04700228 -106.12967902 192.27002251 -109.87890625 192.50390625 C-119.94881339 192.22912548 -129.43966962 187.20591258 -136.5 180.296875 C-149.80531758 165.91539202 -150.98103903 148.85571916 -150.44433594 130.03466797 C-149.33931903 108.26583482 -138.00173548 90.73675356 -123.3125 75.4375 C-122.11753906 74.14779297 -122.11753906 74.14779297 -120.8984375 72.83203125 C-114.82411358 66.47326013 -108.30569535 61.15365876 -101.23828125 55.94018555 C-95.41534558 51.6330767 -90.6713499 47.02386774 -86.1875 41.3125 C-70.2200937 21.71494202 -50.9474991 8.72106435 -26.3125 2.4375 C-25.25542847 2.15821655 -25.25542847 2.15821655 -24.17700195 1.87329102 C-16.19717474 0.00567188 -8.14982718 -0.00647494 0 0 Z " fill="#8B58FE" transform="translate(245.3125,42.5625)"/>
<path d="M0 0 C1.12974747 0.00039276 1.12974747 0.00039276 2.28231812 0.00079346 C35.74216303 0.13827841 61.97618601 13.57364591 85.5625 36.875 C101.19028324 52.74834755 112.94194412 71.00928866 123.6875 90.4375 C124.41453125 90.2209375 125.1415625 90.004375 125.890625 89.78125 C135.55122128 87.10600795 145.37751128 85.24722505 154.65625 90.0546875 C161.45132185 94.68056334 165.85591511 101.45623009 167.6875 109.4375 C167.98193197 113.79605844 167.93349413 118.07793738 167.6875 122.4375 C168.244375 122.46328125 168.80125 122.4890625 169.375 122.515625 C178.10536642 123.16450359 184.13576915 126.12059396 190.1484375 132.50390625 C195.07982118 138.69942636 196.83501519 144.8661022 196.75 152.6875 C196.74097656 153.76515625 196.73195313 154.8428125 196.72265625 155.953125 C196.70525391 157.18289062 196.70525391 157.18289062 196.6875 158.4375 C197.26757812 158.46328125 197.84765625 158.4890625 198.4453125 158.515625 C206.98218793 159.13546414 211.33870753 162.76875332 216.9765625 168.94921875 C221.92389764 176.14431575 223.26748633 182.35055074 222.9375 191 C222.91945313 191.91330078 222.90140625 192.82660156 222.8828125 193.76757812 C222.83622701 195.99203514 222.77085485 198.21416967 222.6875 200.4375 C223.88246094 200.58445313 223.88246094 200.58445313 225.1015625 200.734375 C231.23886488 201.60046633 235.87499158 202.28124273 240.6875 206.4375 C241.34492188 206.98277344 242.00234375 207.52804688 242.6796875 208.08984375 C249.04874985 213.79400399 252.15623367 220.14873585 253.01855469 228.7331543 C253.11427807 232.16464004 253.0873905 235.56846655 253 239 C252.99033203 240.17369141 252.98066406 241.34738281 252.97070312 242.55664062 C252.85734662 251.09780676 252.85734662 251.09780676 251.6875 253.4375 C252.6775 253.1075 253.6675 252.7775 254.6875 252.4375 C262.57635276 251.77099028 270.11572225 251.57486592 276.6875 256.4375 C285.38107496 264.71444996 288.56965981 272.57846148 289.08300781 284.40478516 C289.48552489 305.08761011 281.00115758 323.43417679 271.6875 341.4375 C272.31914063 341.30472656 272.95078125 341.17195313 273.6015625 341.03515625 C297.85092711 336.24817793 331.60711001 334.53929624 353.3125 348.75 C357.59995781 352.05581764 360.87093702 355.82252349 363.6875 360.4375 C364.06261719 361.0046875 364.43773437 361.571875 364.82421875 362.15625 C366.13790761 365.62771739 366.01581729 369.08987917 366 372.75 C366.01611328 373.48412109 366.03222656 374.21824219 366.04882812 374.97460938 C366.05703159 384.21991892 362.05330154 389.99294628 355.6875 396.4375 C351.63358077 400.26278171 347.34276987 403.36925395 342.6875 406.4375 C342.23761719 406.88738281 341.78773438 407.33726562 341.32421875 407.80078125 C339.2636601 409.8613399 337.02688094 411.61867 334.75 413.4375 C312.49090059 431.50260782 312.49090059 431.50260782 295.25 453.9453125 C293.6875 456.4375 293.6875 456.4375 291.34765625 458.75390625 C288.10488903 462.02524411 285.65900541 465.54275997 283.125 469.375 C282.60905273 470.15423828 282.09310547 470.93347656 281.56152344 471.73632812 C275.33609613 481.3063672 269.87464576 491.27315979 264.6875 501.4375 C264.3167334 502.16275879 263.9459668 502.88801758 263.56396484 503.63525391 C259.70598291 511.34568266 256.69941579 519.24039287 254.03515625 527.4375 C253.80054184 528.15673141 253.56592743 528.87596283 253.32420349 529.61698914 C252.15126233 533.22813125 251.00323402 536.84452271 249.89428711 540.47583008 C244.6302772 557.32148252 235.24697439 572.72170036 219.6953125 581.9375 C209.07727494 587.23272912 199.27592689 589.58581894 187.55493164 589.5793457 C186.02676567 589.58455734 186.02676567 589.58455734 184.46772766 589.58987427 C182.25519925 589.59722137 180.04266351 589.60257232 177.83012581 589.60616493 C174.30770643 589.61336289 170.78542376 589.6290601 167.26304626 589.64750671 C157.24708074 589.69977848 147.23118649 589.74780377 137.21508789 589.76342773 C131.0818213 589.77361995 124.94889459 589.80323475 118.81576347 589.84474754 C116.49783358 589.85691537 114.17985534 589.86220537 111.86189461 589.85994911 C98.31844446 589.85002205 85.67987758 590.84481763 72.40254211 593.53611755 C66.99010633 594.62013921 61.73811944 594.99466351 56.22265625 594.8984375 C54.82447914 594.89706284 54.82447914 594.89706284 53.39805603 594.8956604 C51.47389472 594.88974354 49.54973711 594.87437437 47.62573242 594.84912109 C44.72604523 594.81219495 41.8276347 594.80810699 38.92773438 594.80859375 C6.22168761 594.6869409 6.22168761 594.6869409 -2.015625 586.80859375 C-2.44359375 586.35613281 -2.8715625 585.90367187 -3.3125 585.4375 C-3.993125 585.72625 -4.67375 586.015 -5.375 586.3125 C-13.07397908 589.26104518 -19.87414219 589.81010341 -28.05371094 589.80810547 C-30.04378756 589.81245906 -32.03370538 589.8494358 -34.0234375 589.88671875 C-41.44925463 589.90904085 -47.2129756 589.29622273 -53.94189453 586.04296875 C-56.40573921 585.16504679 -56.40573921 585.16504679 -59.02270508 586.52612305 C-60.68943764 587.58655657 -62.32813151 588.69191665 -63.94140625 589.83203125 C-80.47988897 601.03024607 -117.27250993 594.6391829 -135.56640625 591.84765625 C-145.49931732 589.8657649 -152.12021138 585.21730034 -158.8046875 577.7578125 C-164.35750303 569.21280621 -164.65645094 559.30417429 -163.3125 549.4375 C-161.87836201 544.73583882 -159.70584013 540.71495896 -157.3125 536.4375 C-156.67004739 535.11923796 -156.03765816 533.79603618 -155.4140625 532.46875 C-151.47700178 524.13612299 -147.11347266 516.65275938 -141.3125 509.4375 C-140.72984375 508.70273437 -140.1471875 507.96796875 -139.546875 507.2109375 C-138.19750807 505.56680595 -136.76376376 503.99242546 -135.3125 502.4375 C-134.6525 502.4375 -133.9925 502.4375 -133.3125 502.4375 C-133.58964844 501.32375 -133.86679688 500.21 -134.15234375 499.0625 C-140.62378205 472.17977143 -139.71581089 445.53368846 -125.3125 421.4375 C-120.95256864 414.62671965 -115.84313052 408.67288012 -110.3671875 402.7421875 C-107.73887395 399.79407914 -105.51791417 396.71005006 -103.3125 393.4375 C-104.42367187 393.40011719 -105.53484375 393.36273438 -106.6796875 393.32421875 C-122.06090792 392.69436565 -133.54989222 390.07194426 -144.55078125 378.6171875 C-151.59484232 369.90191904 -151.99131343 359.37182745 -151.07421875 348.65234375 C-146.70966455 315.89614402 -120.02113313 285.6125099 -97.3125 263.4375 C-96.19875 262.32375 -96.19875 262.32375 -95.0625 261.1875 C-94.00945947 260.13445947 -92.93650579 259.10009467 -91.828125 258.10546875 C-81.116951 246.31765612 -82.77107626 220.3016961 -82.3125 205.4375 C-82.91288086 205.32575439 -83.51326172 205.21400879 -84.13183594 205.09887695 C-92.06964435 203.50280933 -92.06964435 203.50280933 -95.5625 200.625 C-96.21734375 200.10035156 -96.8721875 199.57570312 -97.546875 199.03515625 C-99.3125 197.4375 -99.3125 197.4375 -101.8125 194.5625 C-104.77190908 192.04700228 -106.12967902 192.27002251 -109.87890625 192.50390625 C-119.94881339 192.22912548 -129.43966962 187.20591258 -136.5 180.296875 C-149.80531758 165.91539202 -150.98103903 148.85571916 -150.44433594 130.03466797 C-149.33931903 108.26583482 -138.00173548 90.73675356 -123.3125 75.4375 C-122.11753906 74.14779297 -122.11753906 74.14779297 -120.8984375 72.83203125 C-114.82411358 66.47326013 -108.30569535 61.15365876 -101.23828125 55.94018555 C-95.41534558 51.6330767 -90.6713499 47.02386774 -86.1875 41.3125 C-70.2200937 21.71494202 -50.9474991 8.72106435 -26.3125 2.4375 C-25.25542847 2.15821655 -25.25542847 2.15821655 -24.17700195 1.87329102 C-16.19717474 0.00567188 -8.14982718 -0.00647494 0 0 Z M-9.06640625 15.4921875 C-21.37170276 16.13093572 -34.79364707 20.03167609 -45.3125 26.4375 C-46.26253906 27.01242188 -47.21257812 27.58734375 -48.19140625 28.1796875 C-59.77022481 35.54399356 -69.86109472 44.60226245 -77.4230957 56.13061523 C-80.29583597 60.42614499 -83.40954203 63.29908221 -87.75 66.125 C-107.78820651 79.85621227 -127.42774797 97.7929953 -132.9921875 122.44921875 C-135.46063018 136.46523917 -135.98870759 152.12184166 -128.3203125 164.70703125 C-124.69751848 169.63374918 -121.15796388 173.38076271 -115.3125 175.4375 C-109.10849086 176.10449951 -104.48899627 176.21808716 -99.3125 172.4375 C-97.79969199 170.8845999 -96.34253809 169.27604657 -94.9375 167.625 C-88.96392749 160.83055578 -81.73919269 152.94577083 -72.3125 151.4375 C-72.951875 152.076875 -73.59125 152.71625 -74.25 153.375 C-74.70246094 153.83132812 -75.15492188 154.28765625 -75.62109375 154.7578125 C-76.88995547 156.01788303 -78.17694694 157.25974067 -79.47265625 158.4921875 C-88.21407253 166.6174943 -88.21407253 166.6174943 -91.875 177.5625 C-91.22767207 182.02187021 -90.37733046 184.13691335 -87.3125 187.4375 C-83.8671888 188.83865568 -83.8671888 188.83865568 -80.3125 189.4375 C-79.68633789 189.61321533 -79.06017578 189.78893066 -78.41503906 189.9699707 C-74.05515226 190.9394532 -69.50911264 190.62221041 -65.0625 190.625 C-64.05058594 190.63724609 -63.03867188 190.64949219 -61.99609375 190.66210938 C-56.03210072 190.67371247 -51.01888614 190.16937645 -45.3125 188.4375 C-44.61479492 188.22859131 -43.91708984 188.01968262 -43.19824219 187.80444336 C-41.06363205 187.1582404 -38.93756491 186.48937253 -36.8125 185.8125 C-36.08546875 185.58304688 -35.3584375 185.35359375 -34.609375 185.1171875 C-32.84307965 184.55941002 -31.07769112 183.99876223 -29.3125 183.4375 C-28.9825 183.7675 -28.6525 184.0975 -28.3125 184.4375 C-37.93896721 196.03679877 -48.28569623 202.79387625 -61.8828125 208.87109375 C-65.08254625 210.09106726 -65.08254625 210.09106726 -66.3125 211.4375 C-66.44619079 213.09951537 -66.51600868 214.76675398 -66.55859375 216.43359375 C-66.59146484 217.46806641 -66.62433594 218.50253906 -66.65820312 219.56835938 C-66.71842285 221.7375509 -66.77581132 223.90682326 -66.83007812 226.07617188 C-67.34830672 241.94570048 -70.46989664 260.08311643 -82.3125 271.4375 C-92.42373661 281.24915445 -102.05530001 290.997707 -110.3125 302.4375 C-110.76818359 303.05947266 -111.22386719 303.68144531 -111.69335938 304.32226562 C-124.00460996 321.21839574 -137.1201689 340.62216113 -134.3125 362.4375 C-132.35715154 368.33057785 -128.52032057 371.46461472 -123.27734375 374.52734375 C-108.36340375 381.43578912 -89.23663023 374.74925393 -74.89404297 369.56298828 C-66.21279346 366.32317428 -58.03582025 362.6180072 -50.3125 357.4375 C-53.36119067 363.98951065 -56.94001118 369.51809684 -61.66015625 374.94921875 C-62.18031815 375.55147781 -62.70048004 376.15373688 -63.23640442 376.77424622 C-69.3221239 383.72462869 -75.89704899 390.17136865 -82.5 396.625 C-102.9142201 416.58163652 -120.94935981 436.71772928 -121.61279297 466.67382812 C-121.66999711 478.16041977 -120.67444079 488.63676966 -116.1640625 499.29296875 C-114.93749971 502.38188146 -114.42606878 504.18725221 -115.3125 507.4375 C-117.11137481 509.07410518 -119.02930583 510.39860154 -121.03515625 511.7734375 C-133.55308136 520.92032618 -145.35080398 541.42390177 -147.84765625 556.71484375 C-148.03670383 562.83834156 -147.06573904 566.46788174 -142.87109375 570.9921875 C-133.11739333 580.45169277 -116.27877713 578.62429518 -103.63476562 578.62280273 C-101.57921393 578.62498228 -99.524207 578.64319563 -97.46875 578.66210938 C-82.27991774 579.28025518 -82.27991774 579.28025518 -68.27270508 575.15771484 C-66.21526982 572.90154392 -65.37297713 570.80036277 -64.875 567.8125 C-65.18581866 565.45707776 -65.18581866 565.45707776 -66.27294922 563.62646484 C-73.00723513 549.44619067 -71.71740061 528.14613292 -71.75 512.6875 C-71.75885223 511.50960907 -71.75885223 511.50960907 -71.7678833 510.30792236 C-71.8371383 496.73358788 -71.49583897 479.80417794 -65.3125 467.4375 C-63.44140625 465.66796875 -63.44140625 465.66796875 -61.3125 464.4375 C-54.98522727 464.76477273 -54.98522727 464.76477273 -52.3125 467.4375 C-52.20653282 471.69384835 -53.17267524 475.90616592 -54.25 480 C-57.78936033 493.57198321 -57.64120548 507.52880106 -57.3125 521.4375 C-57.29445313 522.72785156 -57.27640625 524.01820313 -57.2578125 525.34765625 C-56.92970657 534.3705693 -55.50930577 543.17070801 -54 552.0625 C-53.69896362 553.89663452 -53.69896362 553.89663452 -53.3918457 555.76782227 C-51.88295809 564.29732459 -51.88295809 564.29732459 -47.3125 571.4375 C-42.57513293 574.59574471 -37.49071459 573.80945321 -31.91577148 573.80810547 C-29.88505146 573.81247836 -27.85650733 573.84880537 -25.82617188 573.88671875 C-24.54419922 573.89058594 -23.26222656 573.89445313 -21.94140625 573.8984375 C-20.76650635 573.90665527 -19.59160645 573.91487305 -18.38110352 573.92333984 C-14.67687571 573.33686412 -13.56921862 572.37429405 -11.3125 569.4375 C-10.27670267 567.0130513 -9.3906688 564.67862213 -8.5625 562.1875 C-2.59310143 545.38045548 6.22638225 530.85832976 17.27490234 516.88793945 C21.57309221 511.43174632 23.9701315 507.54775141 24.7578125 500.55859375 C24.92781198 499.16588562 25.09892529 497.77331311 25.27099609 496.38085938 C25.35822937 495.64762451 25.44546265 494.91438965 25.53533936 494.15893555 C34.45316159 420.67183841 34.45316159 420.67183841 53.6875 401.4375 C60.8247549 400.75776144 60.8247549 400.75776144 63.75 403.0625 C65.01824042 406.27537574 64.47822486 408.0880706 63.6875 411.4375 C62.67897179 413.47624519 61.58855853 415.47569589 60.4375 417.4375 C56.66875344 424.22893512 54.08844924 431.06769885 51.6875 438.4375 C51.27757812 439.60152344 50.86765625 440.76554687 50.4453125 441.96484375 C45.26430317 457.29870057 42.3326543 473.30664374 40.73046875 489.390625 C40.65217331 490.15170563 40.57387787 490.91278625 40.49320984 491.69692993 C40.11001236 495.45072852 39.76118616 499.2022583 39.47045898 502.96435547 C38.70596819 511.54282315 37.25781777 516.68708072 30.6875 522.4375 C20.45048652 534.38377888 7.01009458 551.87285146 5.3125 568 C5.77510002 572.24050015 6.44144988 573.66648161 9.6875 576.4375 C12.6444497 577.51974359 15.57263313 578.02398232 18.6875 578.4375 C19.97398437 578.61410156 21.26046875 578.79070313 22.5859375 578.97265625 C29.08454983 579.67321778 35.59542006 579.6295057 42.125 579.625 C42.78746735 579.62472809 43.44993469 579.62445618 44.13247681 579.62417603 C56.46485589 579.60092178 68.83344934 579.54978328 80.70845032 575.91886902 C86.64671619 574.28839991 92.17766804 573.99647529 98.30932617 574.00512695 C99.41308594 573.9949353 100.5168457 573.98474365 101.65405273 573.97424316 C105.26291104 573.944311 108.87150305 573.93487741 112.48046875 573.92578125 C114.9982439 573.90891993 117.51601071 573.89076775 120.0337677 573.87138367 C125.95846866 573.82886188 131.88314286 573.79925312 137.80794269 573.77606028 C145.22426531 573.74622424 152.64042819 573.69605266 160.05664062 573.64648438 C173.26686359 573.56062416 186.47711488 573.49263684 199.6875 573.4375 C199.6875 572.7775 199.6875 572.1175 199.6875 571.4375 C200.56535156 571.32664062 201.44320313 571.21578125 202.34765625 571.1015625 C211.96105566 569.19012636 219.51604131 562.98914502 225.26953125 555.33203125 C228.84401196 549.92958825 230.83108313 544.38457917 232.6484375 538.19042969 C234.47920021 531.95946356 236.60163031 525.85582781 238.8125 519.75 C239.14942871 518.80543945 239.48635742 517.86087891 239.83349609 516.88769531 C241.45612704 512.42847102 243.14962737 508.46380063 245.6875 504.4375 C246.37700937 502.82036241 247.06497436 501.20252588 247.74072266 499.57958984 C253.73166432 486.02504572 260.81116907 472.33178344 269.6875 460.4375 C270.25339844 459.66986328 270.81929687 458.90222656 271.40234375 458.11132812 C278.57902634 448.40042463 285.80600331 438.83874046 294.16015625 430.10546875 C296.18407151 427.96893996 298.1076162 425.80135808 300.0234375 423.5703125 C303.55530059 419.51436342 307.31619438 415.7886856 311.25 412.125 C311.94254883 411.47837402 312.63509766 410.83174805 313.34863281 410.16552734 C319.83027351 404.18531891 326.63104913 398.71901538 333.6875 393.4375 C334.25581543 393.01178711 334.82413086 392.58607422 335.40966797 392.14746094 C336.25682373 391.51372559 336.25682373 391.51372559 337.12109375 390.8671875 C337.66926758 390.45710449 338.21744141 390.04702148 338.78222656 389.62451172 C340.27119731 388.51485878 341.76624011 387.41336655 343.26171875 386.3125 C347.45218853 383.0929994 347.45218853 383.0929994 349.6875 378.4375 C350.12290968 371.7975024 349.41545606 367.55264983 344.87109375 362.36328125 C341.06416734 359.00583095 336.552983 358.50093107 331.6875 357.4375 C329.96466797 357.01597656 329.96466797 357.01597656 328.20703125 356.5859375 C292.97859493 349.02436742 258.15918995 356.767301 227.69677734 375.13378906 C224.22034238 377.3894589 220.96585529 379.90439233 217.6875 382.4375 C217.6875 376.8275 217.6875 371.2175 217.6875 365.4375 C219.3375 365.1075 220.9875 364.7775 222.6875 364.4375 C246.89694559 351.19299997 261.84421016 329.75510945 269.92578125 303.703125 C270.6875 301.4375 270.6875 301.4375 271.6875 300.4375 C272.58470745 295.41954689 272.89877462 290.46254634 272.9375 285.375 C272.958125 284.69373047 272.97875 284.01246094 273 283.31054688 C273.03626792 278.59118346 272.16441251 275.44233927 269.6875 271.4375 C266.40917749 268.62750928 263.49012452 267.96464218 259.19555664 268.02734375 C253.59307714 268.94354793 248.54614427 271.88443804 243.5 274.375 C241.19629194 275.49299476 238.89038088 276.60646426 236.58203125 277.71484375 C235.06379761 278.46109009 235.06379761 278.46109009 233.51489258 279.22241211 C230.87381031 280.35743209 228.51852066 280.99943919 225.6875 281.4375 C226.14640625 280.38433594 226.6053125 279.33117187 227.078125 278.24609375 C232.83897076 264.82085935 237.00034532 252.59514412 237.125 237.875 C237.13523193 236.93438721 237.14546387 235.99377441 237.15600586 235.0246582 C237.0719963 228.48894929 236.04084016 224.06770371 231.5625 219.0625 C227.41344998 216.71738477 224.24980494 216.48779571 219.6875 217.4375 C214.80050568 219.17232629 210.12742521 221.40309726 205.44335938 223.61621094 C199.41163793 226.4375 199.41163793 226.4375 195.6875 226.4375 C196.23019531 225.38691406 196.77289063 224.33632813 197.33203125 223.25390625 C198.05501601 221.83610497 198.77765361 220.41812663 199.5 219 C199.85642578 218.31228516 200.21285156 217.62457031 200.58007812 216.91601562 C204.91668212 208.36216371 207.21669007 200.89002065 207.1875 191.25 C207.21585937 190.38697266 207.24421875 189.52394531 207.2734375 188.63476562 C207.28677915 184.27538263 207.08470836 181.34466096 204.28125 177.88671875 C200.77780103 174.57849209 198.53119904 173.93346618 193.671875 173.94140625 C188.14626509 174.85993041 183.2037785 177.44154666 178.1640625 179.80859375 C174.6875 181.4375 174.6875 181.4375 171.6875 182.4375 C172.29078125 181.6021875 172.8940625 180.766875 173.515625 179.90625 C179.73777239 170.5346206 182.42248652 157.49803909 180.6875 146.4375 C178.63615382 142.3577277 176.96396514 140.20386604 172.6875 138.4375 C163.81375185 137.40222938 155.2237581 140.24218219 146.6875 142.4375 C147.32969502 140.45714979 147.97635644 138.47824744 148.625 136.5 C148.98464844 135.39785156 149.34429687 134.29570312 149.71484375 133.16015625 C150.6875 130.4375 150.6875 130.4375 151.6875 129.4375 C151.93818786 126.34118897 151.87272508 123.23026314 151.875 120.125 C151.88724609 119.25681641 151.89949219 118.38863281 151.91210938 117.49414062 C151.91404297 116.65431641 151.91597656 115.81449219 151.91796875 114.94921875 C151.92207764 114.18053467 151.92618652 113.41185059 151.93041992 112.61987305 C151.65222951 110.12063278 151.02702294 108.55947443 149.6875 106.4375 C145.21155956 103.52293413 141.95924795 103.06563396 136.6875 103.4375 C134.06585019 104.35412262 131.6383882 105.29528469 129.125 106.4375 C124.54217226 108.50746492 120.80598536 109.81606286 115.6875 109.4375 C115.41599121 108.91430176 115.14448242 108.39110352 114.86474609 107.85205078 C98.29890206 75.9892657 79.25474714 46.64139293 47.9375 27.625 C47.32366455 27.25173584 46.7098291 26.87847168 46.07739258 26.49389648 C28.90503108 16.29599902 10.52316605 15.10317472 -9.06640625 15.4921875 Z " fill="#0C0904" transform="translate(245.3125,42.5625)"/>
<path d="M0 0 C0.78890625 0.11762695 1.5778125 0.23525391 2.390625 0.35644531 C7.34637468 1.18029656 11.45311433 2.55336126 16 4.6875 C16.70125 4.96851562 17.4025 5.24953125 18.125 5.5390625 C42.27315096 15.50017477 59.95725634 33.90913797 75 54.6875 C75.45262207 55.30608887 75.90524414 55.92467773 76.37158203 56.56201172 C83.91173984 66.96508659 89.5095715 78.21833938 95.03540039 89.79248047 C95.85632407 91.64695739 95.85632407 91.64695739 97 92.6875 C102.81875444 93.24750043 107.19734861 91.15999459 112.34570312 88.8203125 C118.00558146 86.37719955 122.49853188 85.74354977 128.3125 87.9375 C131.18345076 89.80695631 131.77761219 90.59934397 133 93.6875 C133.43130907 96.73892104 133.38004059 99.79579192 133.375 102.875 C133.37556396 103.72908447 133.37612793 104.58316895 133.37670898 105.46313477 C133.28185602 110.88219334 132.75023887 115.22741248 129.97265625 119.99609375 C128.89788265 121.86507756 128.43877393 123.58600382 128 125.6875 C129.12277344 125.39875 130.24554688 125.11 131.40234375 124.8125 C150.16740659 120.10447229 150.16740659 120.10447229 156.875 122.875 C160.1400326 125.65988074 161.7699657 128.35544093 162.50390625 132.60546875 C162.69857312 143.46787989 160.44671193 157.23447565 153 165.6875 C155.7920453 164.54258207 158.58364888 163.39660806 161.375 162.25 C162.1690625 161.92451172 162.963125 161.59902344 163.78125 161.26367188 C164.54179687 160.95107422 165.30234375 160.63847656 166.0859375 160.31640625 C166.7876709 160.02838135 167.4894043 159.74035645 168.21240234 159.44360352 C169.49409959 158.90148164 170.75528511 158.30985745 172 157.6875 C175.79415519 157.15631827 179.46331178 156.83660652 182.890625 158.734375 C185.61575804 160.9832712 187.79284456 162.89215283 188.20874023 166.49658203 C188.96034221 183.04652668 185.88182442 195.5394611 177 209.6875 C182.14647196 209.11301011 186.10929846 207.44263785 190.6875 205.1875 C197.2476735 202.01260554 202.60109509 199.56377553 210 200.6875 C213.21079464 202.31999264 215.36178678 204.54924343 217.13671875 207.71484375 C222.77364425 227.12525236 214.63710623 247.16077026 207 264.6875 C215.0250268 262.21003019 222.38974942 258.79959457 229.91601562 255.09570312 C235.61301486 252.40380161 239.68895257 251.01686297 246 251.6875 C249.43375132 253.06100053 250.67630894 254.16413445 252.62109375 257.30859375 C254.20816055 261.1975818 254.37479206 264.50296241 254.25 268.625 C254.24484375 269.30240234 254.2396875 269.97980469 254.234375 270.67773438 C254.13987173 276.83816658 253.67833036 282.67240453 251.25 288.375 C250.89164063 289.22578125 250.53328125 290.0765625 250.1640625 290.953125 C249.77992188 291.85546875 249.39578125 292.7578125 249 293.6875 C248.61585938 294.65171875 248.23171875 295.6159375 247.8359375 296.609375 C238.70998531 319.33593981 223.78932729 337.27524515 202 348.6875 C201.01 348.6875 200.02 348.6875 199 348.6875 C199 354.2975 199 359.9075 199 365.6875 C201.7534375 363.7075 201.7534375 363.7075 204.5625 361.6875 C233.60544212 341.42429506 268.33151657 333.19782665 303.51733398 338.6159668 C306.70581767 339.19693342 309.85040214 339.92578623 313 340.6875 C314.61068359 340.99494141 314.61068359 340.99494141 316.25390625 341.30859375 C322.07815191 342.55720034 325.34517214 344.18287138 328.9765625 348.96875 C331.31528764 352.89638 331.68518799 357.23377809 331 361.6875 C329.11366147 365.53158421 326.93657938 367.84461142 323.5625 370.4375 C322.67304687 371.1284375 321.78359375 371.819375 320.8671875 372.53125 C318.96569019 373.96125888 317.05424117 375.37813587 315.1328125 376.78125 C307.76197773 382.1774049 301.12790467 388.02013725 294.49902344 394.29003906 C292.37848181 396.26690881 290.18644648 398.15908867 288 400.0625 C276.1814494 410.71637921 266.41019298 422.91125888 257 435.6875 C256.54496094 436.2959375 256.08992188 436.904375 255.62109375 437.53125 C246.60283895 449.59148328 239.17036105 462.49147181 232.0625 475.75 C231.69697021 476.42780518 231.33144043 477.10561035 230.95483398 477.80395508 C228.8852272 481.72890461 227.17582615 485.66253093 225.67260742 489.83666992 C224.75185836 492.37031735 223.68845498 494.83586323 222.625 497.3125 C218.90764393 506.18726901 215.69427603 515.18278347 213.0625 524.4375 C208.75374054 538.6047011 200.74944607 546.57939429 187.98828125 553.40234375 C185 554.6875 185 554.6875 181 554.6875 C181 555.3475 181 556.0075 181 556.6875 C144.7 556.6875 108.4 556.6875 71 556.6875 C71 556.3575 71 556.0275 71 555.6875 C97.73 555.6875 124.46 555.6875 152 555.6875 C152.33 553.0475 152.66 550.4075 153 547.6875 C153.3110156 546.32342781 153.65648463 544.96568452 154.06616211 543.62792969 C154.27028214 542.93846252 154.47440216 542.24899536 154.68470764 541.53863525 C154.90090256 540.81947937 155.11709747 540.10032349 155.33984375 539.359375 C158.0441389 529.9796142 159.90034777 520.54921191 161.5625 510.9375 C161.70996674 510.10010284 161.85743347 509.26270569 162.0093689 508.39993286 C166.07767309 485.2815244 169.15083814 462.09399612 171 438.6875 C172.3921875 439.17089844 172.3921875 439.17089844 173.8125 439.6640625 C177.22143207 440.75859706 179.44988153 441.13126481 183 440.6875 C186.00685874 439.06842222 188.2581079 437.63172632 190.375 434.9375 C191.33334998 431.48744008 191.58048115 428.20535566 191 424.6875 C188.93228896 421.40768249 187.22880989 419.84003993 184 417.6875 C179.7982564 417.4540698 176.094706 417.80805283 172 418.6875 C171.9906543 417.73125732 171.98130859 416.77501465 171.97167969 415.78979492 C171.69540722 391.31948285 170.17865322 367.14832518 167.58427429 342.81376648 C167.19519149 339.0887708 166.90003827 335.43397283 167 331.6875 C168.07378906 331.58953125 169.14757812 331.4915625 170.25390625 331.390625 C171.69019245 331.24042514 173.12638583 331.08933586 174.5625 330.9375 C175.61920898 330.8446875 175.61920898 330.8446875 176.69726562 330.75 C182.03226655 330.15995382 185.57950276 328.77691815 190 325.6875 C191.79524128 323.55597812 191.79524128 323.55597812 192.875 321.1875 C193.26429688 320.4346875 193.65359375 319.681875 194.0546875 318.90625 C196.53140423 313.09312974 197.18322115 307.0407782 195.05859375 301.01953125 C191.85569816 294.2221635 188.23951675 290.05291946 181.08203125 287.23046875 C173.08837096 285.14581813 166.95907662 286.63858269 160 290.6875 C159.34 290.6875 158.68 290.6875 158 290.6875 C157.76925781 289.53894531 157.53851563 288.39039063 157.30078125 287.20703125 C155.55850333 278.80977826 153.54646497 270.94663608 150.2734375 262.9921875 C148.85075598 259.30019804 147.75307863 255.55544825 146.6875 251.75 C142.26838945 236.15482788 136.43641533 220.91018888 129.8515625 206.10546875 C128.64882001 202.69034213 129.22435455 200.17790451 130 196.6875 C130.66 195.6975 131.32 194.7075 132 193.6875 C132.89171887 186.10788963 132.84584126 178.86357219 128 172.6875 C122.58022589 166.86800285 117.25634993 163.86981942 109.625 161.75 C108.75875 161.399375 107.8925 161.04875 107 160.6875 C106.125 158.5625 106.125 158.5625 106 156.6875 C105.34 156.6875 104.68 156.6875 104 156.6875 C103.46375 155.57246094 102.9275 154.45742187 102.375 153.30859375 C99.85794853 148.2822186 96.96688475 143.52117907 94 138.75 C93.42894531 137.83049561 92.85789062 136.91099121 92.26953125 135.96362305 C87.30227629 128.03917918 82.02808744 120.38007586 76.53564453 112.81298828 C74.92403542 110.58235729 73.3337162 108.33760027 71.74609375 106.08984375 C65.96842847 97.94412903 60.02191767 90.09154834 53.46875 82.5546875 C51.29158661 80.02614648 49.22876367 77.45057382 47.1875 74.8125 C43.08335792 69.61846126 38.56504559 64.83660438 34.01049805 60.03955078 C32.32889727 58.26574612 30.6593095 56.48216486 29 54.6875 C28.49549316 54.14198486 27.99098633 53.59646973 27.47119141 53.03442383 C24.83629162 50.05537577 24.01907161 48.97834199 23.75 44.875 C23.8325 43.823125 23.915 42.77125 24 41.6875 C23.67 41.3575 23.34 41.0275 23 40.6875 C21.38931641 40.79771484 21.38931641 40.79771484 19.74609375 40.91015625 C15.08603749 40.63317689 14.12235666 39.54124595 11.0625 36.125 C10.20785156 35.2071875 9.35320312 34.289375 8.47265625 33.34375 C7.65667969 32.4671875 6.84070313 31.590625 6 30.6875 C4.05163276 28.89014043 2.05396181 27.17111477 0.0390625 25.44921875 C-2.2269223 23.49144261 -4.42143494 21.46521052 -6.625 19.4375 C-11.35545546 15.15651149 -16.30866358 11.21599449 -21.35400391 7.31738281 C-23.67874246 5.52048975 -25.91975812 3.76774188 -28 1.6875 C-30.66949409 1.44434344 -30.66949409 1.44434344 -33.625 1.5625 C-34.62789062 1.58054688 -35.63078125 1.59859375 -36.6640625 1.6171875 C-37.82035156 1.65199219 -37.82035156 1.65199219 -39 1.6875 C-29.17010516 -4.86576323 -11.26548894 -1.71868678 0 0 Z " fill="#7049C6" transform="translate(264,59.3125)"/>
<path d="M0 0 C5.68582243 1.32228429 7.7161093 3.40255302 11 8 C13.70699163 16.12097489 11.6630973 24.7824046 9.75 32.875 C5.90672311 50.52988139 2.93686886 67.97606163 2.8125 86.06640625 C2.79899506 87.51661667 2.79899506 87.51661667 2.78521729 88.99612427 C2.74843964 93.80726842 2.76203766 98.61051243 2.85449219 103.42089844 C2.94682099 115.96667887 0.47075796 124.30293849 -6 135 C-7.45909546 137.95435011 -8.74533824 140.9536257 -10 144 C-10.2563623 144.61004883 -10.51272461 145.22009766 -10.77685547 145.84863281 C-15.31799008 156.72405501 -18.64676803 167.45308538 -21 179 C-24.31242312 179.0588996 -27.62470851 179.09389398 -30.9375 179.125 C-31.86369141 179.14175781 -32.78988281 179.15851563 -33.74414062 179.17578125 C-48.33131308 179.27814737 -48.33131308 179.27814737 -53.5625 174.8125 C-55.86030519 170.31679419 -55.70050883 167.16931765 -54.15234375 162.375 C-47.76280986 146.08710345 -37.92659769 131.90204365 -26.00390625 119.21484375 C-22.77540995 115.64650573 -22.69887719 113.02333387 -22.203125 108.28125 C-22.0508524 106.87216368 -21.89791033 105.46314958 -21.74438477 104.05419922 C-21.66423126 103.31135681 -21.58407776 102.5685144 -21.50149536 101.80316162 C-19.1731987 80.48092534 -16.2345857 59.28719487 -9 39 C-8.73445313 38.23429687 -8.46890625 37.46859375 -8.1953125 36.6796875 C-7.50582667 34.76617065 -6.76561631 32.88430811 -6 31 C-5.63132812 30.06800781 -5.26265625 29.13601563 -4.8828125 28.17578125 C-2.90238765 23.27392222 -0.87101352 18.6482945 1.875 14.125 C3.56437572 11.18718625 4 10.18788013 4 6.6875 C2.99977166 3.99938634 1.89435117 2.14144046 0 0 Z " fill="#ED74FB" transform="translate(306,442)"/>
<path d="M0 0 C0 3.80479947 -1.25229697 5.34351214 -3.25 8.5625 C-6.44187537 13.91226295 -8.93395789 19.13423696 -11 25 C-11.33773437 25.93457031 -11.67546875 26.86914062 -12.0234375 27.83203125 C-20.96190474 53.47131885 -23.09377608 85.02343095 -14 111 C-14 115.47198898 -16.24607834 117.47940931 -19.125 120.68359375 C-32.40718844 137.09263072 -37.73614036 157.74666669 -42 178 C-52.1205827 179.06266118 -52.1205827 179.06266118 -56.5078125 176.58203125 C-60.44489243 173.17522223 -63.3348596 170.02039167 -64.4765625 164.8359375 C-65.47172667 148.33716312 -52.67731167 130.3049678 -42.3125 118.375 C-39.84165459 115.71342266 -37.58040438 113.56491661 -34.4375 111.75 C-31.75050916 110.22422315 -31.75050916 110.22422315 -31.375 107.375 C-31.92900501 104.38337296 -32.69051367 102.20578812 -33.875 99.4375 C-40.92835714 82.57947619 -40.14358891 59.34475566 -33.59375 42.3515625 C-25.87863397 25.8659608 -12.81364215 12.65583868 0 0 Z " fill="#EC74FA" transform="translate(162,440)"/>
<path d="M0 0 C3.5 0.875 3.5 0.875 5.4375 2 C7.13897687 5.00260624 6.74059277 7.46545668 6.5 10.875 C5.62834659 13.61686629 4.43317067 16.1601275 3.1875 18.75 C2.53905249 20.16547199 1.89319196 21.58213215 1.25 23 C0.94320313 23.67160156 0.63640625 24.34320313 0.3203125 25.03515625 C-1.25507483 28.56852497 -2.4872758 32.14503692 -3.5 35.875 C-3.70367187 36.60074219 -3.90734375 37.32648438 -4.1171875 38.07421875 C-6.89686499 49.59274534 -6.5208075 61.81951333 -2.375 72.875 C-0.52648455 75.2596467 -0.52648455 75.2596467 3.1875 75.4375 C11.50658954 74.84760092 17.51383552 69.5266395 23.7890625 64.484375 C26.99788661 62.57942466 28.827396 62.44142869 32.5 62.875 C35.67490453 64.96375298 36.36963857 66.40011192 37.375 70.0625 C35.81791967 76.84692144 30.36690477 80.43967709 24.65087891 84.03955078 C15.25001304 89.61017187 6.64896131 93.08029311 -4.5 91.875 C-10.24008521 90.20597719 -13.17944557 86.17976853 -16.21484375 81.2421875 C-24.49509318 65.99042107 -23.18826557 45.81187336 -18.62890625 29.53515625 C-9.41562677 -0.33627238 -9.41562677 -0.33627238 0 0 Z " fill="#040207" transform="translate(265.5,317.125)"/>
<path d="M0 0 C0 4.0087792 -1.98935125 6.00506757 -4.25 9.125 C-14.1157633 23.34775216 -22.36613162 40.01617546 -26 57 C-26.32968769 58.33423945 -26.66145801 59.66797965 -27 61 C-27.66 61 -28.32 61 -29 61 C-29.20155034 76.82600136 -29.20155034 76.82600136 -23 91 C-22.360625 91.94875 -21.72125 92.8975 -21.0625 93.875 C-18.62984122 96.38137571 -15.90778403 98.08350598 -13 100 C-13 100.66 -13 101.32 -13 102 C-36.55631597 102.87066466 -36.55631597 102.87066466 -43.6328125 96.5390625 C-49.04032375 90.45174984 -49.60681455 84.96925303 -49.3671875 77.0625 C-48.15351046 58.84873669 -34.92359683 40.87467256 -24 27 C-23.47857422 26.33049316 -22.95714844 25.66098633 -22.41992188 24.97119141 C-15.46083387 16.06715973 -8.21470933 7.77022606 0 0 Z " fill="#EC74FA" transform="translate(160,317)"/>
<path d="M0 0 C0.66 0.33 1.32 0.66 2 1 C1.57589844 1.6084375 1.15179688 2.216875 0.71484375 2.84375 C-12.46306337 22.5382046 -19.70582498 45.55167955 -16.5 69.3125 C-14.78522954 77.47026831 -11.09450869 85.23025879 -7.8828125 92.88964844 C-6.89561938 95.24952048 -5.93988745 97.6209099 -5 100 C-12.54249196 100.70858484 -18.0188835 99.85606964 -24 95 C-31.75319697 87.00505524 -34.15403793 74.85870738 -34.4375 64.0625 C-33.78793933 46.56372913 -28.79687246 30.30606723 -17 17 C-16.55575684 16.49839355 -16.11151367 15.99678711 -15.65380859 15.47998047 C-5.7005849 4.30943299 -5.7005849 4.30943299 0 0 Z " fill="#EC74FA" transform="translate(145,118)"/>
<path d="M0 0 C0.8694014 2.9733528 1.08662998 5.52263556 0.9921875 8.61328125 C0.3439537 39.25458482 5.18965911 69.1579823 22.71484375 94.92578125 C24 97 24 97 24 99 C28.29 99 32.58 99 37 99 C37 99.33 37 99.66 37 100 C32.96166211 100.0992502 28.92380128 100.17164562 24.88452148 100.21972656 C23.51199977 100.2397799 22.13956283 100.26703028 20.76733398 100.30175781 C18.78927956 100.35054552 16.81058881 100.37088876 14.83203125 100.390625 C13.64327393 100.41157227 12.4545166 100.43251953 11.22973633 100.45410156 C7.31791328 99.90409847 5.73970896 98.80420161 3 96 C-0.23046077 90.04996603 -1.01406471 82.5399148 -2.125 75.9375 C-2.29676758 74.92381348 -2.46853516 73.91012695 -2.64550781 72.86572266 C-4.00037779 64.56681521 -4.81278573 56.4129412 -5 48 C-5.02578125 47.20948242 -5.0515625 46.41896484 -5.078125 45.60449219 C-5.5519387 30.14039744 -4.5580887 14.86333271 0 0 Z " fill="#6F49C4" transform="translate(193,516)"/>
<path d="M0 0 C4.98669007 2.49334503 8.49675474 5.99350949 11 11 C11.5206578 17.14376205 10.92367191 21.14153478 7 26 C3.4274583 29.39827137 0.43406392 30.34161988 -4.375 30.6875 C-9.92298889 30.51317794 -12.67525787 28.55882587 -16.5390625 24.7265625 C-19.79593749 20.87752842 -19.44526963 16.93052493 -19.421875 12.05859375 C-18.77952789 7.40157719 -16.56928386 4.90058591 -13 2 C-8.7405332 -0.83964453 -5.00024162 -0.63185581 0 0 Z " fill="#724AC8" transform="translate(373,322)"/>
<path d="M0 0 C0.66 0 1.32 0 2 0 C1.855625 0.64582031 1.71125 1.29164063 1.5625 1.95703125 C-1.84536279 19.25666806 -2.029771 40.38178842 7.75 55.75 C8.1625 56.4925 8.575 57.235 9 58 C8 61 8 61 5.9375 62.1875 C2.02416363 63.26991219 -0.9329655 63.32798665 -5 63 C-8.02447089 61.08450177 -8.91395943 58.33569604 -10 55 C-13.79590752 35.79880355 -8.5922507 17.1845014 0 0 Z " fill="#EB73F9" transform="translate(270,330)"/>
<path d="M0 0 C1.67542976 0.28604898 3.34385343 0.61781233 5 1 C5.65441739 9.87099135 4.11608593 15.06389146 -1.375 22 C-6.2765699 25.6981154 -13.2515868 24.7526891 -19 24 C-21.83294083 22.95392201 -23.57629563 21.8466319 -26 20 C-26 18.35 -26 16.7 -26 15 C-24.94941406 14.49210938 -23.89882812 13.98421875 -22.81640625 13.4609375 C-10.62863043 7.92348891 -10.62863043 7.92348891 0 0 Z " fill="#060307" transform="translate(233,118)"/>
<path d="M0 0 C0.495 0.99 0.495 0.99 1 2 C-5.1562609 17.39065225 -17.61334179 30.1972412 -32.6015625 37.21875 C-34.8125 38.0625 -34.8125 38.0625 -38 39 C-38 35.04 -38 31.08 -38 27 C-36.98421875 26.5153125 -35.9684375 26.030625 -34.921875 25.53125 C-21.82514266 19.19370928 -8.3058439 12.45876584 0 0 Z " fill="#6D47C1" transform="translate(217,227)"/>
<path d="M0 0 C3 1.875 3 1.875 5 5 C5.39701254 8.37718457 5.29554513 11.61765016 5 15 C4.34 15 3.68 15 3 15 C2.566875 15.9590625 2.566875 15.9590625 2.125 16.9375 C1 19 1 19 -1 20 C-5.65408901 20.4136968 -8.25239476 19.81070393 -12 17 C-14.45665197 13.31502204 -14.70086491 10.28028214 -14 6 C-10.35622069 0.29141242 -6.69224243 -1.07485347 0 0 Z " fill="#724AC8" transform="translate(388,532)"/>
<path d="M0 0 C0.66 0.33 1.32 0.66 2 1 C-4.59431139 5.84581973 -11.36934518 9.08201694 -19 12 C-19 13.65 -19 15.3 -19 17 C-12.24494398 20.24558406 -12.24494398 20.24558406 -5 22 C-5 22.33 -5 22.66 -5 23 C-21.30617643 23.61063351 -21.30617643 23.61063351 -28.4375 18.125 C-30 16 -30 16 -30.375 13.375 C-30 11 -30 11 -28 9 C-25.95629883 8.26977539 -25.95629883 8.26977539 -23.45703125 7.59765625 C-22.54759766 7.34693359 -21.63816406 7.09621094 -20.70117188 6.83789062 C-19.74791016 6.58201172 -18.79464844 6.32613281 -17.8125 6.0625 C-10.24042821 4.06183613 -10.24042821 4.06183613 -2.94921875 1.24609375 C-1.97597656 0.83488281 -1.00273437 0.42367187 0 0 Z " fill="#E672F8" transform="translate(227,121)"/>
<path d="M0 0 C2.375 1 2.375 1 4 3 C4.56641498 5.77427747 4.56641498 8.22572253 4 11 C1.78300364 13.7286109 0.41355329 13.94936082 -3.0625 14.375 C-6 14 -6 14 -7.875 13 C-9.68523932 9.78179676 -9.53967465 6.59783102 -9 3 C-6.88807224 -0.75453824 -4.01205827 -0.49127244 0 0 Z " fill="#714AC9" transform="translate(321,167)"/>
<path d="M0 0 C3.5 0.25 3.5 0.25 5.5 2.25 C5.81537716 6.58643601 5.94897847 8.57653229 3.5 12.25 C0.0625 12.6875 0.0625 12.6875 -3.5 12.25 C-5.5 10.625 -5.5 10.625 -6.5 8.25 C-6.18385334 2.98088898 -5.67193396 0.40513814 0 0 Z " fill="#8A58FB" transform="translate(527.5,437.75)"/>
<path d="M0 0 C0.66 0.33 1.32 0.66 2 1 C-2.07789615 5.85728926 -6.35900185 10.48787426 -10.8125 15 C-11.53240112 15.73923706 -11.53240112 15.73923706 -12.2668457 16.4934082 C-13.47235051 17.70233107 -14.73236351 18.85639427 -16 20 C-16.66 20 -17.32 20 -18 20 C-16.5735422 16.7413364 -14.83295838 14.5975146 -12.3046875 12.109375 C-11.23154297 11.04589844 -11.23154297 11.04589844 -10.13671875 9.9609375 C-9.39035156 9.23132813 -8.64398438 8.50171875 -7.875 7.75 C-7.12089844 7.00492187 -6.36679688 6.25984375 -5.58984375 5.4921875 C-3.73099228 3.6568658 -1.86762995 1.8263809 0 0 Z " fill="#59430F" transform="translate(133,107)"/>
<path d="M0 0 C3.56236095 3.56236095 4.12298421 6.95701224 4.1953125 11.86328125 C4.18210152 13.67979066 4.15837281 15.49624913 4.125 17.3125 C4.11597656 18.24384766 4.10695313 19.17519531 4.09765625 20.13476562 C4.07418422 22.42328823 4.03831609 24.71167779 4 27 C6.97 27.33 9.94 27.66 13 28 C13 28.33 13 28.66 13 29 C9.37 29 5.74 29 2 29 C2.02320313 27.61425781 2.04640625 26.22851562 2.0703125 24.80078125 C2.0890758 22.97135957 2.1072754 21.14193204 2.125 19.3125 C2.14175781 18.40048828 2.15851563 17.48847656 2.17578125 16.54882812 C2.21010017 11.82997695 2.04288751 8.33510382 0 4 C0 2.68 0 1.36 0 0 Z " fill="#97731A" transform="translate(464,216)"/>
<path d="M0 0 C-1.66463038 4.28642324 -4.79075837 7.08617217 -8 10.25 C-8.5465625 10.80429688 -9.093125 11.35859375 -9.65625 11.9296875 C-13.7466133 16 -13.7466133 16 -16 16 C-14.33536962 11.71357676 -11.20924163 8.91382783 -8 5.75 C-7.4534375 5.19570312 -6.906875 4.64140625 -6.34375 4.0703125 C-2.2533867 0 -2.2533867 0 0 0 Z " fill="#57420F" transform="translate(177,67)"/>
<path d="M0 0 C0.66 0.33 1.32 0.66 2 1 C-0.57074923 5.28458205 -2.61577178 7.63926173 -7 10 C-7.556875 10.556875 -8.11375 11.11375 -8.6875 11.6875 C-9.120625 12.120625 -9.55375 12.55375 -10 13 C-10.66 13 -11.32 13 -12 13 C-10.44997253 9.11602311 -7.99523379 6.97020381 -4.875 4.25 C-3.96492187 3.45078125 -3.05484375 2.6515625 -2.1171875 1.828125 C-1.06917969 0.92320313 -1.06917969 0.92320313 0 0 Z " fill="#D66AE2" transform="translate(145,118)"/>
<path d="M0 0 C6.93 0 13.86 0 21 0 C21 0.66 21 1.32 21 2 C20.01 2.33 19.02 2.66 18 3 C17.67 2.67 17.34 2.34 17 2 C14.14122091 1.76298761 11.30116703 1.57780818 8.4375 1.4375 C7.63119141 1.39431641 6.82488281 1.35113281 5.99414062 1.30664062 C3.99631195 1.20024738 1.9981793 1.09959112 0 1 C0 0.67 0 0.34 0 0 Z " fill="#8B6A18" transform="translate(125,434)"/>
<path d="M0 0 C5.445 1.485 5.445 1.485 11 3 C11 3.33 11 3.66 11 4 C6.38 4 1.76 4 -3 4 C-2.01 3.34 -1.02 2.68 0 2 C0 1.34 0 0.68 0 0 Z " fill="#DA70F8" transform="translate(211,140)"/>
<path d="M0 0 C0.66 0.33 1.32 0.66 2 1 C-0.97 3.97 -3.94 6.94 -7 10 C-7.99 9.67 -8.98 9.34 -10 9 C-6.7 6.03 -3.4 3.06 0 0 Z " fill="#7D4FDF" transform="translate(189,76)"/>
<path d="M0 0 C0 4.24645065 -1.81750806 6.38524772 -4 10 C-4.33 9.34 -4.66 8.68 -5 8 C-5.66 7.67 -6.32 7.34 -7 7 C-4.69 4.69 -2.38 2.38 0 0 Z " fill="#CB67E5" transform="translate(162,440)"/>
<path d="M0 0 C0.66 0 1.32 0 2 0 C1.67 2.64 1.34 5.28 1 8 C-0.32 8 -1.64 8 -3 8 C-1.125 2.25 -1.125 2.25 0 0 Z " fill="#C062DC" transform="translate(270,330)"/>
</svg>
